<svg width="16" height="16" viewBox="0 0 16 16" fill="none" xmlns="http://www.w3.org/2000/svg">
<path d="M14.2555 0H12.7601V1.6C12.7601 1.92 12.5109 2.13333 12.2617 2.13333C12.0125 2.13333 11.7632 1.92 11.7632 1.6V0H3.78816V1.6C3.78816 1.92 3.53894 2.13333 3.28972 2.13333C3.0405 2.13333 2.79128 1.92 2.79128 1.6V0H1.29595C0.548287 0 0 0.693333 0 1.6V3.52H15.9502V1.6C15.9502 0.693333 15.053 0 14.2555 0ZM0 4.64V14.4C0 15.36 0.548287 16 1.34579 16H14.3053C15.1028 16 16 15.3067 16 14.4V4.64H0ZM4.43614 13.6H3.23988C3.0405 13.6 2.84112 13.44 2.84112 13.1733V11.84C2.84112 11.6267 2.99065 11.4133 3.23988 11.4133H4.48598C4.68536 11.4133 4.88474 11.5733 4.88474 11.84V13.1733C4.83489 13.44 4.68536 13.6 4.43614 13.6ZM4.43614 8.8H3.23988C3.0405 8.8 2.84112 8.64 2.84112 8.37333V7.04C2.84112 6.82667 2.99065 6.61333 3.23988 6.61333H4.48598C4.68536 6.61333 4.88474 6.77333 4.88474 7.04V8.37333C4.83489 8.64 4.68536 8.8 4.43614 8.8ZM8.42368 13.6H7.17757C6.97819 13.6 6.77882 13.44 6.77882 13.1733V11.84C6.77882 11.6267 6.92835 11.4133 7.17757 11.4133H8.42368C8.62305 11.4133 8.82243 11.5733 8.82243 11.84V13.1733C8.82243 13.44 8.6729 13.6 8.42368 13.6ZM8.42368 8.8H7.17757C6.97819 8.8 6.77882 8.64 6.77882 8.37333V7.04C6.77882 6.82667 6.92835 6.61333 7.17757 6.61333H8.42368C8.62305 6.61333 8.82243 6.77333 8.82243 7.04V8.37333C8.82243 8.64 8.6729 8.8 8.42368 8.8ZM12.4112 13.6H11.1651C10.9657 13.6 10.7664 13.44 10.7664 13.1733V11.84C10.7664 11.6267 10.9159 11.4133 11.1651 11.4133H12.4112C12.6106 11.4133 12.81 11.5733 12.81 11.84V13.1733C12.81 13.44 12.6604 13.6 12.4112 13.6ZM12.4112 8.8H11.1651C10.9657 8.8 10.7664 8.64 10.7664 8.37333V7.04C10.7664 6.82667 10.9159 6.61333 11.1651 6.61333H12.4112C12.6106 6.61333 12.81 6.77333 12.81 7.04V8.37333C12.81 8.64 12.6604 8.8 12.4112 8.8Z" fill="#2B2B2B"/>
</svg>
