<svg width="16" height="16" viewBox="0 0 16 16" fill="none" xmlns="http://www.w3.org/2000/svg">
<g clip-path="url(#clip0_790_3947)">
<path d="M14.6673 1.8335H1.33398C1.20138 1.8335 1.0742 1.78082 0.980431 1.68705C0.886663 1.59328 0.833984 1.4661 0.833984 1.3335C0.833984 1.20089 0.886663 1.07371 0.980431 0.979943C1.0742 0.886175 1.20138 0.833496 1.33398 0.833496H14.6673C14.7999 0.833496 14.9271 0.886175 15.0209 0.979943C15.1146 1.07371 15.1673 1.20089 15.1673 1.3335C15.1673 1.4661 15.1146 1.59328 15.0209 1.68705C14.9271 1.78082 14.7999 1.8335 14.6673 1.8335Z" fill="#2B2B2B"/>
<path d="M9.99414 15.0659C9.74947 15.0659 9.51102 14.9889 9.3125 14.8459L8.09183 13.9663C8.06332 13.946 8.02915 13.935 7.99411 13.9351C7.95908 13.9352 7.92494 13.9462 7.8965 13.9666L6.67773 14.8452C6.4791 14.9886 6.24031 15.0657 5.99534 15.0656C5.75036 15.0655 5.51165 14.9881 5.31315 14.8446L4.0944 13.9666C4.06598 13.9461 4.03177 13.935 3.99668 13.9351C3.96159 13.9351 3.92742 13.9463 3.89907 13.967L2.82031 14.7446C2.6959 14.8344 2.54913 14.888 2.39617 14.8996C2.24321 14.9113 2.09002 14.8804 1.95347 14.8105C1.81692 14.7406 1.70232 14.6344 1.6223 14.5035C1.54229 14.3727 1.49997 14.2222 1.5 14.0688V1.3335C1.50004 1.2009 1.55273 1.07374 1.64649 0.979982C1.74025 0.886221 1.8674 0.833531 2 0.833496H14C14.1326 0.833531 14.2598 0.886221 14.3535 0.979982C14.4473 1.07374 14.5 1.2009 14.5 1.3335V14.0698C14.5 14.2231 14.4577 14.3735 14.3777 14.5043C14.2978 14.6351 14.1833 14.7414 14.0469 14.8113C13.9105 14.8813 13.7575 14.9123 13.6046 14.901C13.4517 14.8896 13.3049 14.8363 13.1803 14.7469L12.0944 13.966C12.0662 13.9455 12.0322 13.9345 11.9974 13.9345C11.9626 13.9345 11.9286 13.9455 11.9004 13.966L10.6751 14.8462C10.4768 14.9891 10.2386 15.066 9.99414 15.0659ZM7.99481 12.9347C8.23953 12.9348 8.47803 13.0119 8.67645 13.1551L9.89715 14.0343C9.92547 14.0548 9.95953 14.0658 9.99448 14.0658C10.0294 14.0658 10.0635 14.0548 10.0918 14.0343L11.3164 13.1542C11.5148 13.0115 11.753 12.9347 11.9974 12.9347C12.2418 12.9347 12.48 13.0115 12.6784 13.1542L13.5 13.745V1.8335H2.5V13.7427L3.31445 13.1558C3.51289 13.0123 3.75147 12.9351 3.99631 12.935C4.24115 12.9349 4.47981 13.0119 4.67839 13.1551L5.89844 14.0337C5.92689 14.0542 5.96105 14.0652 5.99611 14.0652C6.03116 14.0652 6.06533 14.0542 6.09377 14.0337L7.31252 13.1551C7.51122 13.0119 7.74991 12.9349 7.99481 12.9347Z" fill="#2B2B2B"/>
<path d="M11.6673 7.8335H4.33398C4.20138 7.8335 4.0742 7.78082 3.98043 7.68705C3.88666 7.59328 3.83398 7.4661 3.83398 7.3335C3.83398 7.20089 3.88666 7.07371 3.98043 6.97994C4.0742 6.88617 4.20138 6.8335 4.33398 6.8335H11.6673C11.7999 6.8335 11.9271 6.88617 12.0209 6.97994C12.1146 7.07371 12.1673 7.20089 12.1673 7.3335C12.1673 7.4661 12.1146 7.59328 12.0209 7.68705C11.9271 7.78082 11.7999 7.8335 11.6673 7.8335Z" fill="#2B2B2B"/>
<path d="M11.6673 5.16699H4.33398C4.20138 5.16699 4.0742 5.11431 3.98043 5.02055C3.88666 4.92678 3.83398 4.7996 3.83398 4.66699C3.83398 4.53438 3.88666 4.40721 3.98043 4.31344C4.0742 4.21967 4.20138 4.16699 4.33398 4.16699H11.6673C11.7999 4.16699 11.9271 4.21967 12.0209 4.31344C12.1146 4.40721 12.1673 4.53438 12.1673 4.66699C12.1673 4.7996 12.1146 4.92678 12.0209 5.02055C11.9271 5.11431 11.7999 5.16699 11.6673 5.16699Z" fill="#2B2B2B"/>
<path d="M9.00065 10.5H4.33398C4.20138 10.5 4.0742 10.4473 3.98043 10.3536C3.88666 10.2598 3.83398 10.1326 3.83398 10C3.83398 9.86739 3.88666 9.74022 3.98043 9.64645C4.0742 9.55268 4.20138 9.5 4.33398 9.5H9.00065C9.13326 9.5 9.26044 9.55268 9.3542 9.64645C9.44797 9.74022 9.50065 9.86739 9.50065 10C9.50065 10.1326 9.44797 10.2598 9.3542 10.3536C9.26044 10.4473 9.13326 10.5 9.00065 10.5Z" fill="#2B2B2B"/>
</g>
<defs>
<clipPath id="clip0_790_3947">
<rect width="16" height="16" fill="white"/>
</clipPath>
</defs>
</svg>
