<svg width="16" height="16" viewBox="0 0 16 16" fill="none" xmlns="http://www.w3.org/2000/svg">
<g clip-path="url(#clip0_790_3970)">
<path d="M4.64639 15.25C4.64639 15.4489 4.72541 15.6397 4.86606 15.7803C5.00671 15.921 5.19748 16 5.39639 16H12.4668C13.1296 15.9993 13.7651 15.7356 14.2337 15.2669C14.7024 14.7983 14.9661 14.1628 14.9668 13.5V2.5C14.9661 1.83719 14.7024 1.20173 14.2337 0.733055C13.7651 0.264376 13.1296 0.000744409 12.4668 0L5.39639 0C5.19748 0 5.00671 0.0790176 4.86606 0.21967C4.72541 0.360322 4.64639 0.551088 4.64639 0.75C4.64639 0.948912 4.72541 1.13968 4.86606 1.28033C5.00671 1.42098 5.19748 1.5 5.39639 1.5H12.4668C12.7319 1.50029 12.9861 1.60574 13.1736 1.79321C13.3611 1.98069 13.4665 2.23487 13.4668 2.5V13.5C13.4665 13.7651 13.3611 14.0193 13.1736 14.2068C12.9861 14.3943 12.7319 14.4997 12.4668 14.5H5.39639C5.19748 14.5 5.00671 14.579 4.86606 14.7197C4.72541 14.8603 4.64639 15.0511 4.64639 15.25ZM1.25411 7.46969L4.8182 3.90556C4.88756 3.83464 4.9703 3.77819 5.06163 3.73946C5.15295 3.70074 5.25105 3.68052 5.35025 3.67997C5.44945 3.67942 5.54777 3.69855 5.63952 3.73626C5.73127 3.77397 5.81463 3.82951 5.88477 3.89966C5.9549 3.9698 6.01043 4.05317 6.04813 4.14492C6.08583 4.23668 6.10495 4.335 6.10439 4.4342C6.10383 4.53339 6.0836 4.63149 6.04486 4.72282C6.00613 4.81414 5.94966 4.89687 5.87873 4.96622L3.59508 7.25H9.49933C9.69824 7.25 9.88901 7.32902 10.0297 7.46967C10.1703 7.61032 10.2493 7.80109 10.2493 8C10.2493 8.19891 10.1703 8.38968 10.0297 8.53033C9.88901 8.67098 9.69824 8.75 9.49933 8.75H3.59511L5.87886 11.0337C5.94881 11.1033 6.00435 11.186 6.0423 11.2771C6.08024 11.3682 6.09984 11.4658 6.09997 11.5645C6.10011 11.6632 6.08077 11.7609 6.04308 11.8521C6.00538 11.9432 5.95007 12.0261 5.8803 12.0958C5.81054 12.1656 5.72769 12.2209 5.63651 12.2586C5.54534 12.2963 5.44762 12.3157 5.34895 12.3155C5.25029 12.3154 5.15262 12.2958 5.06155 12.2578C4.97047 12.2199 4.88778 12.1644 4.8182 12.0944L1.25411 8.53034C1.11346 8.38969 1.03444 8.19893 1.03444 8.00002C1.03444 7.8011 1.11346 7.61034 1.25411 7.46969Z" fill="#2B2B2B"/>
</g>
<defs>
<clipPath id="clip0_790_3970">
<rect width="16" height="16" fill="white" transform="matrix(-1 0 0 1 16 0)"/>
</clipPath>
</defs>
</svg>
