<svg width="22" height="22" viewBox="0 0 22 22" fill="none" xmlns="http://www.w3.org/2000/svg">
<g id="Frame">
<g id="Layer 2">
<path id="Vector" d="M19.4209 9.17335C19.1232 9.00027 18.8557 8.77982 18.6289 8.52068C18.6518 8.15989 18.7378 7.80591 18.8828 7.47476C19.1496 6.72218 19.4512 5.86968 18.9672 5.20693C18.4832 4.54418 17.5692 4.56526 16.7672 4.5836C16.4127 4.62006 16.0547 4.59588 15.7084 4.5121C15.5239 4.2119 15.3921 3.88233 15.3188 3.53768C15.0915 2.7631 14.8321 1.88768 14.0355 1.62551C13.2673 1.37801 12.556 1.92251 11.9272 2.40101C11.6558 2.64881 11.3414 2.84484 10.9995 2.97943C10.654 2.84594 10.3361 2.64985 10.0617 2.40101C9.43475 1.92526 8.72616 1.37526 7.95433 1.62643C7.15958 1.88493 6.90016 2.7631 6.671 3.53768C6.59778 3.88121 6.46732 4.20999 6.28508 4.51026C5.93814 4.59383 5.57964 4.61861 5.22449 4.5836C4.41966 4.5616 3.51308 4.53776 3.02449 5.20693C2.53591 5.8761 2.84116 6.72218 3.10883 7.47385C3.2559 7.8045 3.34311 8.15863 3.36641 8.51976C3.14007 8.77925 2.87285 9.00002 2.57533 9.17335C1.90433 9.63168 1.14258 10.1533 1.14258 11.0003C1.14258 11.8473 1.90433 12.367 2.57533 12.8272C2.87279 13.0002 3.14 13.2207 3.36641 13.4798C3.34556 13.8408 3.26083 14.1953 3.11616 14.5267C2.85033 15.2783 2.54966 16.1308 3.03274 16.7936C3.51583 17.4563 4.42699 17.4353 5.23274 17.4169C5.58746 17.3804 5.94581 17.4046 6.29241 17.4884C6.47609 17.7889 6.60751 18.1184 6.68108 18.4628C6.90841 19.2374 7.16783 20.1128 7.96441 20.375C8.09212 20.416 8.22538 20.437 8.3595 20.4373C9.0041 20.3448 9.60321 20.0517 10.0718 19.5995C10.3432 19.3517 10.6576 19.1557 10.9995 19.0211C11.345 19.1546 11.6629 19.3507 11.9372 19.5995C12.5652 20.0789 13.2765 20.6262 14.0456 20.3741C14.8403 20.1156 15.0997 19.2374 15.3289 18.4638C15.4024 18.1196 15.5338 17.7904 15.7176 17.4903C16.0632 17.4061 16.4206 17.3813 16.7745 17.4169C17.5793 17.4362 18.4859 17.4628 18.9745 16.7936C19.4631 16.1244 19.1578 15.2783 18.8902 14.5258C18.7441 14.1954 18.6569 13.8421 18.6326 13.4817C18.859 13.222 19.1266 13.0012 19.4246 12.8281C20.0956 12.3698 20.8573 11.8473 20.8573 11.0003C20.8573 10.1533 20.0928 9.6326 19.4209 9.17335Z" fill="#49ADF4"/>
<path id="Vector_2" d="M10.0838 13.521C9.99347 13.5212 9.90404 13.5034 9.82065 13.4688C9.73726 13.4342 9.66156 13.3834 9.59793 13.3193L7.7646 11.486C7.64316 11.3557 7.57704 11.1833 7.58019 11.0052C7.58333 10.8271 7.65548 10.6571 7.78144 10.5312C7.9074 10.4052 8.07734 10.3331 8.25545 10.3299C8.43356 10.3268 8.60594 10.3929 8.73626 10.5143L10.1479 11.926L13.3379 9.5335C13.4838 9.4241 13.6672 9.37712 13.8477 9.40291C14.0282 9.42869 14.191 9.52513 14.3004 9.671C14.4098 9.81687 14.4568 10.0002 14.431 10.1807C14.4052 10.3612 14.3088 10.5241 14.1629 10.6335L10.4963 13.3835C10.3772 13.4727 10.2325 13.5209 10.0838 13.521Z" fill="white"/>
</g>
</g>
</svg>
