<svg width="16" height="16" viewBox="0 0 16 16" fill="none" xmlns="http://www.w3.org/2000/svg">
<g clip-path="url(#clip0_790_3959)">
<path d="M6.41602 7.99561H9.6178V10.397H6.41602V7.99561Z" fill="#2B2B2B"/>
<path d="M8.81775 6.3949C8.81775 5.95288 8.45935 5.59448 8.01721 5.59448C7.5752 5.59448 7.2168 5.95276 7.2168 6.3949V7.19531H8.81763V6.3949H8.81775Z" fill="#2B2B2B"/>
<path d="M14.8201 2.39234C12.4918 2.39234 9.42848 1.60682 8.33656 0.151129C8.19129 -0.0257514 7.93018 -0.0512641 7.75343 0.0938776C7.73255 0.11109 7.71339 0.130255 7.69618 0.151129C6.60425 1.60657 3.54077 2.39234 1.21265 2.39234C0.991699 2.39234 0.8125 2.57154 0.8125 2.79261V7.99538C0.8125 12.3963 4.63416 15.0492 7.90662 15.9842C7.97828 16.005 8.05445 16.005 8.12623 15.9842C11.3987 15.0492 15.2204 12.3963 15.2204 7.99538V2.79261C15.2204 2.57154 15.0412 2.39234 14.8201 2.39234ZM10.4177 10.7969C10.4177 11.018 10.2385 11.1972 10.0176 11.1972H6.01526C5.79432 11.1972 5.61512 11.018 5.61512 10.7969V7.59523C5.61512 7.37416 5.79432 7.19496 6.01526 7.19496H6.41553V6.39454C6.41553 5.51039 7.13221 4.79371 8.01637 4.79371C8.90052 4.79371 9.61732 5.51039 9.61732 6.39454V7.19496H10.0175C10.2385 7.19496 10.4176 7.37416 10.4176 7.59523V10.7969H10.4177Z" fill="#2B2B2B"/>
</g>
<defs>
<clipPath id="clip0_790_3959">
<rect width="16" height="16" fill="white"/>
</clipPath>
</defs>
</svg>
