<svg width="79" height="17" viewBox="0 0 79 17" fill="none" xmlns="http://www.w3.org/2000/svg">
<rect width="79" height="17" rx="8.5" fill="#49ADF4"/>
<path d="M9.1978 12V4.72727H11.9251C12.4838 4.72727 12.9525 4.82434 13.3313 5.01847C13.7125 5.21259 14.0001 5.48485 14.1942 5.83523C14.3907 6.18324 14.489 6.58925 14.489 7.05327C14.489 7.51965 14.3896 7.92448 14.1907 8.26776C13.9942 8.60866 13.7042 8.87263 13.3207 9.05966C12.9371 9.24432 12.466 9.33665 11.9073 9.33665H9.96484V8.2429H11.7298C12.0565 8.2429 12.324 8.19792 12.5323 8.10795C12.7406 8.01562 12.8945 7.88187 12.994 7.70668C13.0958 7.52912 13.1467 7.31132 13.1467 7.05327C13.1467 6.79522 13.0958 6.57505 12.994 6.39276C12.8922 6.2081 12.7371 6.06842 12.5288 5.97372C12.3204 5.87666 12.0517 5.82812 11.7227 5.82812H10.5153V12H9.1978ZM12.9549 8.70455L14.7553 12H13.2852L11.5167 8.70455H12.9549ZM17.4815 12.1065C16.9347 12.1065 16.4624 11.9929 16.0646 11.7656C15.6693 11.536 15.3651 11.2116 15.152 10.7926C14.9389 10.3712 14.8324 9.87524 14.8324 9.30469C14.8324 8.74361 14.9389 8.25118 15.152 7.82741C15.3674 7.40128 15.6681 7.06984 16.054 6.8331C16.4399 6.59399 16.8932 6.47443 17.4141 6.47443C17.7502 6.47443 18.0675 6.52888 18.3658 6.63778C18.6664 6.74432 18.9316 6.91004 19.1612 7.13494C19.3932 7.35985 19.5755 7.64631 19.7081 7.99432C19.8407 8.33996 19.907 8.75189 19.907 9.23011V9.62429H15.4361V8.75781H18.6747C18.6723 8.5116 18.6191 8.29261 18.5149 8.10085C18.4107 7.90672 18.2652 7.75402 18.0781 7.64276C17.8935 7.53149 17.678 7.47585 17.4318 7.47585C17.169 7.47585 16.9382 7.53977 16.7393 7.66761C16.5405 7.79309 16.3854 7.95881 16.2741 8.16477C16.1652 8.36837 16.1096 8.59209 16.1072 8.83594V9.59233C16.1072 9.90956 16.1652 10.1818 16.2812 10.4091C16.3973 10.634 16.5594 10.8068 16.7678 10.9276C16.9761 11.0459 17.2199 11.1051 17.4993 11.1051C17.6863 11.1051 17.8556 11.0791 18.0071 11.027C18.1586 10.9725 18.29 10.8932 18.4013 10.7891C18.5125 10.6849 18.5966 10.5559 18.6534 10.402L19.8537 10.5369C19.7779 10.8542 19.6335 11.1312 19.4205 11.3679C19.2098 11.6023 18.9399 11.7846 18.6108 11.9148C18.2817 12.0426 17.9053 12.1065 17.4815 12.1065ZM21.6664 10.2884L21.6628 8.73651H21.8688L23.829 6.54545H25.3311L22.9199 9.23011H22.6536L21.6664 10.2884ZM20.4945 12V4.72727H21.78V12H20.4945ZM23.9178 12L22.1422 9.51776L23.0087 8.61222L25.4554 12H23.9178ZM27.8425 12.1065C27.3098 12.1065 26.8482 11.9893 26.4576 11.755C26.0669 11.5206 25.7639 11.1927 25.5485 10.7713C25.3354 10.3499 25.2289 9.85748 25.2289 9.29403C25.2289 8.73059 25.3354 8.23698 25.5485 7.81321C25.7639 7.38944 26.0669 7.06037 26.4576 6.82599C26.8482 6.59162 27.3098 6.47443 27.8425 6.47443C28.3752 6.47443 28.8368 6.59162 29.2275 6.82599C29.6181 7.06037 29.9199 7.38944 30.133 7.81321C30.3484 8.23698 30.4561 8.73059 30.4561 9.29403C30.4561 9.85748 30.3484 10.3499 30.133 10.7713C29.9199 11.1927 29.6181 11.5206 29.2275 11.755C28.8368 11.9893 28.3752 12.1065 27.8425 12.1065ZM27.8496 11.0767C28.1384 11.0767 28.3799 10.9974 28.574 10.8388C28.7682 10.6778 28.9126 10.4624 29.0073 10.1925C29.1043 9.92259 29.1529 9.62192 29.1529 9.29048C29.1529 8.95668 29.1043 8.65483 29.0073 8.38494C28.9126 8.11269 28.7682 7.89607 28.574 7.73509C28.3799 7.5741 28.1384 7.49361 27.8496 7.49361C27.5537 7.49361 27.3075 7.5741 27.111 7.73509C26.9168 7.89607 26.7712 8.11269 26.6742 8.38494C26.5795 8.65483 26.5321 8.95668 26.5321 9.29048C26.5321 9.62192 26.5795 9.92259 26.6742 10.1925C26.7712 10.4624 26.9168 10.6778 27.111 10.8388C27.3075 10.9974 27.5537 11.0767 27.8496 11.0767ZM31.0472 12V6.54545H32.2759V7.4723H32.3398C32.4535 7.1598 32.6417 6.91596 32.9045 6.74077C33.1673 6.56321 33.4809 6.47443 33.8455 6.47443C34.2148 6.47443 34.5262 6.56439 34.7795 6.74432C35.0352 6.92187 35.2151 7.16454 35.3192 7.4723H35.3761C35.4968 7.16927 35.7004 6.92779 35.9869 6.74787C36.2757 6.56558 36.6178 6.47443 37.0131 6.47443C37.515 6.47443 37.9246 6.63305 38.2418 6.95028C38.5591 7.26752 38.7177 7.73035 38.7177 8.33878V12H37.4286V8.53764C37.4286 8.1991 37.3387 7.9517 37.1587 7.79545C36.9788 7.63684 36.7586 7.55753 36.4982 7.55753C36.1881 7.55753 35.9454 7.65459 35.7702 7.84872C35.5974 8.04048 35.511 8.29025 35.511 8.59801V12H34.2504V8.48438C34.2504 8.20265 34.1651 7.97775 33.9947 7.80966C33.8266 7.64157 33.6064 7.55753 33.3342 7.55753C33.1495 7.55753 32.9814 7.60488 32.8299 7.69957C32.6784 7.7919 32.5576 7.9233 32.4677 8.09375C32.3777 8.26184 32.3327 8.45833 32.3327 8.68324V12H31.0472ZM41.9366 12.1065C41.3897 12.1065 40.9174 11.9929 40.5197 11.7656C40.1243 11.536 39.8201 11.2116 39.6071 10.7926C39.394 10.3712 39.2875 9.87524 39.2875 9.30469C39.2875 8.74361 39.394 8.25118 39.6071 7.82741C39.8225 7.40128 40.1232 7.06984 40.5091 6.8331C40.8949 6.59399 41.3483 6.47443 41.8691 6.47443C42.2053 6.47443 42.5225 6.52888 42.8208 6.63778C43.1215 6.74432 43.3867 6.91004 43.6163 7.13494C43.8483 7.35985 44.0306 7.64631 44.1632 7.99432C44.2958 8.33996 44.362 8.75189 44.362 9.23011V9.62429H39.8912V8.75781H43.1298C43.1274 8.5116 43.0742 8.29261 42.97 8.10085C42.8658 7.90672 42.7202 7.75402 42.5332 7.64276C42.3485 7.53149 42.1331 7.47585 41.8869 7.47585C41.6241 7.47585 41.3933 7.53977 41.1944 7.66761C40.9956 7.79309 40.8405 7.95881 40.7292 8.16477C40.6203 8.36837 40.5647 8.59209 40.5623 8.83594V9.59233C40.5623 9.90956 40.6203 10.1818 40.7363 10.4091C40.8523 10.634 41.0145 10.8068 41.2228 10.9276C41.4312 11.0459 41.675 11.1051 41.9544 11.1051C42.1414 11.1051 42.3107 11.0791 42.4622 11.027C42.6137 10.9725 42.7451 10.8932 42.8564 10.7891C42.9676 10.6849 43.0517 10.5559 43.1085 10.402L44.3088 10.5369C44.233 10.8542 44.0886 11.1312 43.8755 11.3679C43.6648 11.6023 43.3949 11.7846 43.0659 11.9148C42.7368 12.0426 42.3604 12.1065 41.9366 12.1065ZM46.2351 8.80398V12H44.9496V6.54545H46.1783V7.4723H46.2422C46.3677 7.1669 46.5677 6.92424 46.8423 6.74432C47.1193 6.56439 47.4614 6.47443 47.8686 6.47443C48.245 6.47443 48.5729 6.55492 48.8523 6.71591C49.134 6.87689 49.3518 7.11009 49.5057 7.41548C49.6619 7.72088 49.7389 8.09138 49.7365 8.52699V12H48.451V8.72585C48.451 8.36127 48.3563 8.07599 48.1669 7.87003C47.9799 7.66406 47.7206 7.56108 47.3892 7.56108C47.1643 7.56108 46.9643 7.6108 46.7891 7.71023C46.6162 7.80729 46.4801 7.94815 46.3807 8.13281C46.2836 8.31747 46.2351 8.54119 46.2351 8.80398ZM52.5675 12.0959C52.139 12.0959 51.7554 11.9858 51.4169 11.7656C51.0784 11.5455 50.8108 11.2259 50.6143 10.8068C50.4179 10.3878 50.3196 9.87879 50.3196 9.27983C50.3196 8.67377 50.419 8.16241 50.6179 7.74574C50.8191 7.3267 51.0902 7.01065 51.4311 6.79759C51.772 6.58215 52.152 6.47443 52.571 6.47443C52.8906 6.47443 53.1534 6.52888 53.3594 6.63778C53.5653 6.74432 53.7287 6.87334 53.8494 7.02486C53.9702 7.17401 54.0637 7.31487 54.13 7.44744H54.1832V4.72727H55.4723V12H54.2081V11.1406H54.13C54.0637 11.2732 53.9678 11.4141 53.8423 11.5632C53.7169 11.71 53.5511 11.8355 53.3452 11.9396C53.1392 12.0438 52.88 12.0959 52.5675 12.0959ZM52.9261 11.0412C53.1984 11.0412 53.4304 10.9678 53.6222 10.821C53.8139 10.6719 53.9595 10.4647 54.0589 10.1996C54.1584 9.93442 54.2081 9.62547 54.2081 9.27273C54.2081 8.91998 54.1584 8.6134 54.0589 8.35298C53.9619 8.09257 53.8175 7.89015 53.6257 7.74574C53.4363 7.60133 53.2031 7.52912 52.9261 7.52912C52.6397 7.52912 52.4006 7.60369 52.2088 7.75284C52.017 7.90199 51.8726 8.10795 51.7756 8.37074C51.6785 8.63352 51.63 8.93419 51.63 9.27273C51.63 9.61364 51.6785 9.91785 51.7756 10.1854C51.875 10.4505 52.0206 10.66 52.2124 10.8139C52.4065 10.9654 52.6444 11.0412 52.9261 11.0412ZM57.9118 12.1101C57.5661 12.1101 57.2548 12.0485 56.9778 11.9254C56.7032 11.8 56.4854 11.6153 56.3244 11.3714C56.1658 11.1276 56.0865 10.8269 56.0865 10.4695C56.0865 10.1617 56.1433 9.9072 56.2569 9.70597C56.3706 9.50473 56.5256 9.34375 56.7221 9.22301C56.9186 9.10227 57.14 9.01113 57.3862 8.94957C57.6348 8.88565 57.8916 8.83949 58.1568 8.81108C58.4764 8.77794 58.7356 8.74834 58.9345 8.7223C59.1333 8.69389 59.2778 8.65128 59.3677 8.59446C59.46 8.53527 59.5062 8.44413 59.5062 8.32102V8.29972C59.5062 8.0322 59.4269 7.82505 59.2683 7.67827C59.1097 7.53149 58.8812 7.4581 58.5829 7.4581C58.2681 7.4581 58.0183 7.52675 57.8336 7.66406C57.6513 7.80137 57.5282 7.96354 57.4643 8.15057L56.264 7.98011C56.3587 7.64867 56.515 7.37169 56.7328 7.14915C56.9506 6.92424 57.2169 6.75616 57.5318 6.64489C57.8467 6.53125 58.1947 6.47443 58.5758 6.47443C58.8386 6.47443 59.1002 6.50521 59.3606 6.56676C59.621 6.62831 59.859 6.73011 60.0744 6.87216C60.2898 7.01184 60.4627 7.20241 60.5929 7.44389C60.7254 7.68537 60.7917 7.98722 60.7917 8.34943V12H59.5559V11.2507H59.5133C59.4352 11.4022 59.3251 11.5443 59.1831 11.6768C59.0434 11.8071 58.867 11.9124 58.6539 11.9929C58.4432 12.071 58.1958 12.1101 57.9118 12.1101ZM58.2456 11.1655C58.5036 11.1655 58.7273 11.1146 58.9167 11.0128C59.1061 10.9086 59.2517 10.7713 59.3535 10.6009C59.4577 10.4304 59.5098 10.2446 59.5098 10.0433V9.40057C59.4695 9.43371 59.4009 9.46449 59.3038 9.4929C59.2091 9.52131 59.1026 9.54616 58.9842 9.56747C58.8658 9.58878 58.7486 9.60772 58.6326 9.62429C58.5166 9.64086 58.416 9.65507 58.3308 9.6669C58.139 9.69294 57.9674 9.73556 57.8159 9.79474C57.6644 9.85393 57.5448 9.93679 57.4572 10.0433C57.3696 10.1475 57.3258 10.2824 57.3258 10.4482C57.3258 10.6849 57.4122 10.8636 57.585 10.9844C57.7579 11.1051 57.978 11.1655 58.2456 11.1655ZM65.8954 7.98722L64.7235 8.11506C64.6904 7.99669 64.6324 7.88542 64.5495 7.78125C64.469 7.67708 64.3601 7.59304 64.2228 7.52912C64.0855 7.4652 63.9174 7.43324 63.7186 7.43324C63.4511 7.43324 63.2261 7.49124 63.0439 7.60724C62.8639 7.72325 62.7752 7.87358 62.7775 8.05824C62.7752 8.21686 62.8332 8.34588 62.9515 8.44531C63.0723 8.54474 63.2711 8.62642 63.5481 8.69034L64.4785 8.8892C64.9946 9.00047 65.3781 9.17685 65.6291 9.41832C65.8824 9.6598 66.0102 9.97585 66.0126 10.3665C66.0102 10.7098 65.9096 11.0128 65.7108 11.2756C65.5143 11.536 65.2408 11.7396 64.8904 11.8864C64.5401 12.0331 64.1376 12.1065 63.6831 12.1065C63.0154 12.1065 62.478 11.9669 62.0708 11.6875C61.6636 11.4058 61.421 11.014 61.3429 10.5121L62.5964 10.3913C62.6532 10.6375 62.774 10.8234 62.9586 10.9489C63.1433 11.0743 63.3836 11.1371 63.6795 11.1371C63.9849 11.1371 64.2299 11.0743 64.4146 10.9489C64.6016 10.8234 64.6951 10.6683 64.6951 10.4837C64.6951 10.3274 64.6348 10.1984 64.514 10.0966C64.3957 9.99479 64.211 9.91667 63.96 9.86222L63.0297 9.6669C62.5065 9.558 62.1194 9.37453 61.8684 9.11648C61.6175 8.85606 61.4932 8.52699 61.4956 8.12926C61.4932 7.79309 61.5843 7.50189 61.769 7.25568C61.956 7.0071 62.2153 6.81534 62.5467 6.6804C62.8805 6.54309 63.2652 6.47443 63.7008 6.47443C64.34 6.47443 64.8431 6.61056 65.21 6.88281C65.5794 7.15507 65.8078 7.5232 65.8954 7.98722ZM66.5726 12V6.54545H67.8581V12H66.5726ZM67.2189 5.77131C67.0153 5.77131 66.8401 5.70384 66.6934 5.56889C66.5466 5.43158 66.4732 5.26705 66.4732 5.07528C66.4732 4.88116 66.5466 4.71662 66.6934 4.58168C66.8401 4.44437 67.0153 4.37571 67.2189 4.37571C67.4249 4.37571 67.6001 4.44437 67.7445 4.58168C67.8913 4.71662 67.9647 4.88116 67.9647 5.07528C67.9647 5.26705 67.8913 5.43158 67.7445 5.56889C67.6001 5.70384 67.4249 5.77131 67.2189 5.77131Z" fill="white"/>
</svg>
