<svg width="114" height="38" viewBox="0 0 114 38" fill="none" xmlns="http://www.w3.org/2000/svg">
<path d="M72.5 19C72.5 28.7029 64.8514 36.5 55.5 36.5C46.1486 36.5 38.5 28.7029 38.5 19C38.5 9.29706 46.1486 1.5 55.5 1.5C64.8514 1.5 72.5 9.29706 72.5 19Z" stroke="url(#paint0_linear_790_3898)" stroke-width="3"/>
<path d="M67.5 19.0001C67.5 25.867 62.09 31.365 55.5 31.365C48.91 31.365 43.5 25.867 43.5 19.0001C43.5 12.1332 48.91 6.63525 55.5 6.63525C62.09 6.63525 67.5 12.1332 67.5 19.0001Z" stroke="url(#paint1_linear_790_3898)" stroke-width="3"/>
<path d="M78 11.2974H34V27.7298H78V11.2974Z" fill="white"/>
<path d="M10.2618 25.2432L4.67375 18.4012V25.2432H1.59375V9.88721H4.67375V16.7732L10.2618 9.88721H13.9798L7.64375 17.4992L14.1558 25.2432H10.2618ZM21.0937 25.4412C19.9203 25.4412 18.8643 25.1845 17.9257 24.6712C16.987 24.1432 16.2463 23.4025 15.7037 22.4492C15.1757 21.4958 14.9117 20.3958 14.9117 19.1492C14.9117 17.9025 15.183 16.8025 15.7257 15.8492C16.283 14.8958 17.0383 14.1625 17.9917 13.6492C18.945 13.1212 20.0083 12.8572 21.1817 12.8572C22.355 12.8572 23.4183 13.1212 24.3717 13.6492C25.325 14.1625 26.073 14.8958 26.6157 15.8492C27.173 16.8025 27.4517 17.9025 27.4517 19.1492C27.4517 20.3958 27.1657 21.4958 26.5937 22.4492C26.0363 23.4025 25.2737 24.1432 24.3057 24.6712C23.3523 25.1845 22.2817 25.4412 21.0937 25.4412ZM21.0937 22.7572C21.651 22.7572 22.1717 22.6252 22.6557 22.3612C23.1543 22.0825 23.5503 21.6718 23.8437 21.1292C24.137 20.5865 24.2837 19.9265 24.2837 19.1492C24.2837 17.9905 23.9757 17.1032 23.3597 16.4872C22.7583 15.8565 22.0177 15.5412 21.1377 15.5412C20.2577 15.5412 19.517 15.8565 18.9157 16.4872C18.329 17.1032 18.0357 17.9905 18.0357 19.1492C18.0357 20.3078 18.3217 21.2025 18.8937 21.8332C19.4803 22.4492 20.2137 22.7572 21.0937 22.7572ZM44.347 12.8792C45.843 12.8792 47.0456 13.3412 47.955 14.2652C48.879 15.1745 49.341 16.4505 49.341 18.0932V25.2432H46.261V18.5112C46.261 17.5578 46.019 16.8318 45.535 16.3332C45.051 15.8198 44.391 15.5632 43.555 15.5632C42.719 15.5632 42.0516 15.8198 41.553 16.3332C41.069 16.8318 40.827 17.5578 40.827 18.5112V25.2432H37.747V18.5112C37.747 17.5578 37.505 16.8318 37.021 16.3332C36.537 15.8198 35.877 15.5632 35.041 15.5632C34.1903 15.5632 33.5156 15.8198 33.017 16.3332C32.533 16.8318 32.291 17.5578 32.291 18.5112V25.2432H29.211V13.0552H32.291V14.5292C32.687 14.0158 33.193 13.6125 33.809 13.3192C34.4396 13.0258 35.129 12.8792 35.877 12.8792C36.8303 12.8792 37.681 13.0845 38.429 13.4952C39.177 13.8912 39.7563 14.4632 40.167 15.2112C40.563 14.5072 41.135 13.9425 41.883 13.5172C42.6456 13.0918 43.467 12.8792 44.347 12.8792ZM63.2697 13.0552V25.2432H60.1677V23.7032C59.7717 24.2312 59.251 24.6492 58.6057 24.9572C57.975 25.2505 57.2857 25.3972 56.5377 25.3972C55.5844 25.3972 54.741 25.1992 54.0077 24.8032C53.2744 24.3925 52.695 23.7985 52.2697 23.0212C51.859 22.2292 51.6537 21.2905 51.6537 20.2052V13.0552H54.7337V19.7652C54.7337 20.7332 54.9757 21.4812 55.4597 22.0092C55.9437 22.5225 56.6037 22.7792 57.4397 22.7792C58.2904 22.7792 58.9577 22.5225 59.4417 22.0092C59.9257 21.4812 60.1677 20.7332 60.1677 19.7652V13.0552H63.2697ZM72.5626 12.8792C74.0146 12.8792 75.1879 13.3412 76.0826 14.2652C76.9773 15.1745 77.4246 16.4505 77.4246 18.0932V25.2432H74.3446V18.5112C74.3446 17.5432 74.1026 16.8025 73.6186 16.2892C73.1346 15.7612 72.4746 15.4972 71.6386 15.4972C70.7879 15.4972 70.1133 15.7612 69.6146 16.2892C69.1306 16.8025 68.8886 17.5432 68.8886 18.5112V25.2432H65.8086V13.0552H68.8886V14.5732C69.2993 14.0452 69.8199 13.6345 70.4506 13.3412C71.0959 13.0332 71.7999 12.8792 72.5626 12.8792Z" fill="#2B2B2B"/>
<path d="M85.266 25.441C84.0927 25.441 83.0367 25.1843 82.098 24.671C81.1594 24.143 80.4187 23.4023 79.876 22.449C79.348 21.4956 79.084 20.3956 79.084 19.149C79.084 17.9023 79.3554 16.8023 79.898 15.849C80.4554 14.8956 81.2107 14.1623 82.164 13.649C83.1174 13.121 84.1807 12.857 85.354 12.857C86.5274 12.857 87.5907 13.121 88.544 13.649C89.4974 14.1623 90.2454 14.8956 90.788 15.849C91.3454 16.8023 91.624 17.9023 91.624 19.149C91.624 20.3956 91.338 21.4956 90.766 22.449C90.2087 23.4023 89.446 24.143 88.478 24.671C87.5247 25.1843 86.454 25.441 85.266 25.441ZM85.266 22.757C85.8234 22.757 86.344 22.625 86.828 22.361C87.3267 22.0823 87.7227 21.6716 88.016 21.129C88.3094 20.5863 88.456 19.9263 88.456 19.149C88.456 17.9903 88.148 17.103 87.532 16.487C86.9307 15.8563 86.19 15.541 85.31 15.541C84.43 15.541 83.6894 15.8563 83.088 16.487C82.5014 17.103 82.208 17.9903 82.208 19.149C82.208 20.3076 82.494 21.2023 83.066 21.833C83.6527 22.449 84.386 22.757 85.266 22.757ZM96.9693 15.585V21.481C96.9693 21.8916 97.0647 22.1923 97.2553 22.383C97.4607 22.559 97.798 22.647 98.2673 22.647H99.6973V25.243H97.7613C95.1653 25.243 93.8673 23.9816 93.8673 21.459V15.585H92.4153V13.055H93.8673V10.041H96.9693V13.055H99.6973V15.585H96.9693ZM106.825 25.441C105.651 25.441 104.595 25.1843 103.657 24.671C102.718 24.143 101.977 23.4023 101.435 22.449C100.907 21.4956 100.643 20.3956 100.643 19.149C100.643 17.9023 100.914 16.8023 101.457 15.849C102.014 14.8956 102.769 14.1623 103.723 13.649C104.676 13.121 105.739 12.857 106.913 12.857C108.086 12.857 109.149 13.121 110.103 13.649C111.056 14.1623 111.804 14.8956 112.347 15.849C112.904 16.8023 113.183 17.9023 113.183 19.149C113.183 20.3956 112.897 21.4956 112.325 22.449C111.767 23.4023 111.005 24.143 110.037 24.671C109.083 25.1843 108.013 25.441 106.825 25.441ZM106.825 22.757C107.382 22.757 107.903 22.625 108.387 22.361C108.885 22.0823 109.281 21.6716 109.575 21.129C109.868 20.5863 110.015 19.9263 110.015 19.149C110.015 17.9903 109.707 17.103 109.091 16.487C108.489 15.8563 107.749 15.541 106.869 15.541C105.989 15.541 105.248 15.8563 104.647 16.487C104.06 17.103 103.767 17.9903 103.767 19.149C103.767 20.3076 104.053 21.2023 104.625 21.833C105.211 22.449 105.945 22.757 106.825 22.757Z" fill="#EE7D32"/>
<defs>
<linearGradient id="paint0_linear_790_3898" x1="55.5" y1="6.47136e-08" x2="55.5" y2="38" gradientUnits="userSpaceOnUse">
<stop offset="0.0001" stop-color="#EE7D32"/>
<stop offset="0.0002" stop-color="#FDD6A7"/>
<stop offset="0.0003" stop-color="#FCC789"/>
<stop offset="0.0004" stop-color="#FEDCB3"/>
<stop offset="0.0005" stop-color="#F09942" stop-opacity="0.17"/>
<stop offset="0.0006" stop-color="#F5AE66"/>
<stop offset="0.0007" stop-color="#EE7D32" stop-opacity="0.7"/>
<stop offset="0.114583" stop-color="#EE7D32" stop-opacity="0.8"/>
<stop offset="0.223958" stop-color="#EE7D32" stop-opacity="0.9"/>
<stop offset="0.307292" stop-color="#EE7D32" stop-opacity="0.9"/>
<stop offset="0.40625" stop-color="#EE7D32" stop-opacity="0.9"/>
<stop offset="0.510417" stop-color="#EE7D32"/>
<stop offset="0.604167" stop-color="#EE7D32"/>
<stop offset="0.682292" stop-color="#EE7D32"/>
<stop offset="0.802083" stop-color="#EE7D32"/>
<stop offset="0.901042" stop-color="#EE7D32"/>
<stop offset="0.9997" stop-color="#F09741"/>
<stop offset="0.9998" stop-color="#FAB462"/>
<stop offset="0.9999" stop-color="#EE7D32"/>
</linearGradient>
<linearGradient id="paint1_linear_790_3898" x1="55.5" y1="5.13525" x2="55.5" y2="32.865" gradientUnits="userSpaceOnUse">
<stop offset="0.0001" stop-color="#EE7D32"/>
<stop offset="0.0002" stop-color="#FDD6A7"/>
<stop offset="0.0003" stop-color="#FCC789"/>
<stop offset="0.0004" stop-color="#FEDCB3"/>
<stop offset="0.0005" stop-color="#F09942" stop-opacity="0.17"/>
<stop offset="0.0006" stop-color="#F5AE66"/>
<stop offset="0.0007" stop-color="#EE7D32" stop-opacity="0.7"/>
<stop offset="0.114583" stop-color="#EE7D32" stop-opacity="0.8"/>
<stop offset="0.223958" stop-color="#EE7D32" stop-opacity="0.9"/>
<stop offset="0.307292" stop-color="#EE7D32" stop-opacity="0.9"/>
<stop offset="0.40625" stop-color="#EE7D32" stop-opacity="0.9"/>
<stop offset="0.510417" stop-color="#EE7D32"/>
<stop offset="0.604167" stop-color="#EE7D32"/>
<stop offset="0.682292" stop-color="#EE7D32"/>
<stop offset="0.802083" stop-color="#EE7D32"/>
<stop offset="0.901042" stop-color="#EE7D32"/>
<stop offset="0.9997" stop-color="#F09741"/>
<stop offset="0.9998" stop-color="#FAB462"/>
<stop offset="0.9999" stop-color="#EE7D32"/>
</linearGradient>
</defs>
</svg>
