<svg width="23" height="22" viewBox="0 0 23 22" fill="none" xmlns="http://www.w3.org/2000/svg">
<g clip-path="url(#clip0_284_13484)">
<path d="M12.4965 8.17464C13.0325 8.51075 13.4085 9.07953 13.4769 9.73975C13.6955 9.8419 13.9382 9.90064 14.1954 9.90064C15.1346 9.90064 15.8958 9.13943 15.8958 8.20039C15.8958 7.26121 15.1346 6.5 14.1954 6.5C13.2652 6.50029 12.5107 7.2479 12.4965 8.17464ZM11.3825 11.6562C12.3217 11.6562 13.0829 10.8948 13.0829 9.95577C13.0829 9.01673 12.3215 8.25552 11.3825 8.25552C10.4435 8.25552 9.68182 9.01688 9.68182 9.95591C9.68182 10.895 10.4435 11.6562 11.3825 11.6562ZM12.1038 11.7721H10.6609C9.46045 11.7721 8.48379 12.7489 8.48379 13.9494V15.7138L8.48828 15.7415L8.60982 15.7795C9.75547 16.1375 10.7508 16.2569 11.57 16.2569C13.1701 16.2569 14.0976 15.8007 14.1548 15.7716L14.2683 15.7141H14.2805V13.9494C14.2809 12.7489 13.3043 11.7721 12.1038 11.7721ZM14.917 10.0167H13.4853C13.4698 10.5895 13.2253 11.1053 12.8385 11.4763C13.9056 11.7936 14.6863 12.7832 14.6863 13.952V14.4957C16.1 14.4439 16.9146 14.0433 16.9683 14.0163L17.0818 13.9588H17.094V12.1937C17.094 10.9933 16.1173 10.0167 14.917 10.0167ZM8.39886 9.90093C8.7315 9.90093 9.04099 9.80385 9.30317 9.63846C9.38651 9.09487 9.67792 8.61985 10.0942 8.29632C10.0959 8.26449 10.099 8.23295 10.099 8.20083C10.099 7.26165 9.3376 6.50043 8.39886 6.50043C7.45953 6.50043 6.69846 7.26165 6.69846 8.20083C6.69846 9.13957 7.45953 9.90093 8.39886 9.90093ZM9.92591 11.4763C9.54104 11.1072 9.29738 10.5941 9.27958 10.0248C9.22648 10.0209 9.17396 10.0167 9.11985 10.0167H7.67715C6.47666 10.0167 5.5 10.9933 5.5 12.1937V13.9585L5.50449 13.9857L5.62602 14.024C6.54509 14.3109 7.36534 14.4432 8.07779 14.4848V13.952C8.07808 12.7832 8.85854 11.7939 9.92591 11.4763Z" fill="#2B2B2B"/>
<circle cx="11.5" cy="11" r="9.5" stroke="#2B2B2B" stroke-width="3"/>
</g>
<defs>
<clipPath id="clip0_284_13484">
<rect width="22" height="22" fill="white" transform="translate(0.5)"/>
</clipPath>
</defs>
</svg>
