<svg width="30" height="30" viewBox="0 0 30 30" fill="none" xmlns="http://www.w3.org/2000/svg">
<path d="M29.9719 10.0856L28.275 3.29437C28.0669 2.46 27.3169 1.875 26.4562 1.875H3.54562C2.685 1.875 1.935 2.46 1.725 3.29437L0.028125 10.0856C0.009375 10.1588 0 10.2356 0 10.3125C0 12.8962 1.99688 15 4.45312 15C5.88 15 7.15312 14.2894 7.96875 13.1869C8.78438 14.2894 10.0575 15 11.4844 15C12.9113 15 14.1844 14.2894 15 13.1869C15.8156 14.2894 17.0869 15 18.5156 15C19.9444 15 21.2156 14.2894 22.0312 13.1869C22.8469 14.2894 24.1181 15 25.5469 15C28.0031 15 30 12.8962 30 10.3125C30 10.2356 29.9906 10.1588 29.9719 10.0856Z" fill="#2B2B2B"/>
<path d="M25.5469 16.875C24.27 16.875 23.0569 16.485 22.0312 15.7725C19.98 17.1993 17.0512 17.1993 15 15.7725C12.9488 17.1993 10.02 17.1993 7.96875 15.7725C6.94313 16.485 5.73 16.875 4.45312 16.875C3.5325 16.875 2.66438 16.6593 1.875 16.2918V26.25C1.875 27.285 2.715 28.125 3.75 28.125H11.25V20.625H18.75V28.125H26.25C27.285 28.125 28.125 27.285 28.125 26.25V16.2918C27.3356 16.6593 26.4675 16.875 25.5469 16.875Z" fill="#2B2B2B"/>
</svg>
