<svg width="30" height="30" viewBox="0 0 30 30" fill="none" xmlns="http://www.w3.org/2000/svg">
<g clip-path="url(#clip0_581_6346)">
<path d="M23.4411 17.4677C23.3113 17.4677 23.1777 17.4864 23.0439 17.5232L22.5408 17.6619L21.7995 15.8563C21.3839 14.844 20.1556 14.0205 19.0612 14.0205H10.9254C9.83121 14.0205 8.60274 14.8441 8.1873 15.8564L7.44734 17.6587L6.95621 17.5234C6.82245 17.4865 6.68881 17.4678 6.55898 17.4678C5.90624 17.4678 5.43237 17.9361 5.43237 18.5812C5.43237 19.2181 5.8972 19.7543 6.5272 19.9153C6.18174 20.8694 5.91327 22.2994 5.91327 23.239V27.0812C5.91327 27.9015 6.58052 28.5688 7.40081 28.5688H7.9462C8.76649 28.5688 9.43374 27.9015 9.43374 27.0812V26.3625H20.5528V27.0812C20.5528 27.9015 21.2201 28.5688 22.0403 28.5688H22.586C23.4063 28.5688 24.0735 27.9015 24.0735 27.0812V23.239C24.0735 22.3004 23.8055 20.8722 23.4606 19.9182C24.0968 19.7611 24.5677 19.222 24.5677 18.5812C24.5676 17.936 24.0939 17.4677 23.4411 17.4677ZM8.37211 18.967L9.5813 16.0212C9.8299 15.4157 10.5688 14.9203 11.2233 14.9203H18.7637C19.4182 14.9203 20.1571 15.4157 20.4057 16.0212L21.6149 18.967C21.8635 19.5725 21.5314 20.0679 20.8769 20.0679H9.11017C8.45565 20.0679 8.12351 19.5725 8.37211 18.967ZM11.5781 23.757C11.5781 24.0843 11.3103 24.352 10.983 24.352H8.51515C8.18789 24.352 7.92014 24.0843 7.92014 23.757V22.7727C7.92014 22.4455 8.18789 22.1777 8.51515 22.1777H10.983C11.3103 22.1777 11.5781 22.4455 11.5781 22.7727V23.757ZM22.0398 23.757C22.0398 24.0843 21.772 24.352 21.4447 24.352H18.9771C18.6498 24.352 18.3821 24.0843 18.3821 23.757V22.7727C18.3821 22.4455 18.6498 22.1777 18.9771 22.1777H21.4447C21.772 22.1777 22.0398 22.4455 22.0398 22.7727V23.757Z" fill="#2B2B2B"/>
<path d="M29.3397 8.51314L15.6638 0.496726C15.4823 0.390337 15.2466 0.331787 15 0.331787C14.7534 0.331787 14.5177 0.390337 14.3362 0.496726L0.660349 8.51314C0.283942 8.73377 0 9.2293 0 9.66569V28.7755C0 29.2675 0.400327 29.668 0.892524 29.668H2.42909C2.92129 29.668 3.32162 29.2675 3.32162 28.7755V12.6044C3.32162 12.4404 3.45502 12.3068 3.61913 12.3068H26.3806C26.5447 12.3068 26.6781 12.4404 26.6781 12.6044V28.7755C26.6781 29.2675 27.0785 29.668 27.5707 29.668H29.1074C29.5996 29.668 29.9999 29.2675 29.9999 28.7755V9.66569C30 9.2293 29.7161 8.73377 29.3397 8.51314Z" fill="#2B2B2B"/>
</g>
<defs>
<clipPath id="clip0_581_6346">
<rect width="30" height="30" fill="white"/>
</clipPath>
</defs>
</svg>
