<svg width="22" height="22" viewBox="0 0 22 22" fill="none" xmlns="http://www.w3.org/2000/svg">
<g clip-path="url(#clip0_19_830)">
<path d="M21.479 18.8168L16.4211 13.7585C17.2804 12.3904 17.7792 10.7733 17.7792 9.03786C17.7792 4.12808 13.799 0.148438 8.88942 0.148438C3.97983 0.148438 0 4.12808 0 9.03786C0 13.9478 3.97964 17.9271 8.88942 17.9271C10.778 17.9271 12.5273 17.3366 13.9668 16.3333L18.9646 21.3315C19.3118 21.6784 19.7671 21.8512 20.2218 21.8512C20.677 21.8512 21.1317 21.6784 21.4796 21.3315C22.1735 20.6367 22.1735 19.5114 21.479 18.8168ZM8.88942 15.047C5.57098 15.047 2.8806 12.3569 2.8806 9.03823C2.8806 5.71961 5.57098 3.02922 8.88942 3.02922C12.208 3.02922 14.8982 5.71961 14.8982 9.03823C14.8982 12.3569 12.208 15.047 8.88942 15.047Z" fill="#2B2B2B"/>
</g>
<defs>
<clipPath id="clip0_19_830">
<rect width="22" height="22" fill="white"/>
</clipPath>
</defs>
</svg>
