<svg width="22" height="22" viewBox="0 0 22 22" fill="none" xmlns="http://www.w3.org/2000/svg">
<g clip-path="url(#clip0_19_839)">
<path d="M9.71094 20.668C10.7788 20.668 11.6445 19.8023 11.6445 18.7344C11.6445 17.6665 10.7788 16.8008 9.71094 16.8008C8.64304 16.8008 7.77734 17.6665 7.77734 18.7344C7.77734 19.8023 8.64304 20.668 9.71094 20.668Z" fill="#2B2B2B"/>
<path d="M16.1991 20.668C17.267 20.668 18.1327 19.8023 18.1327 18.7344C18.1327 17.6665 17.267 16.8008 16.1991 16.8008C15.1312 16.8008 14.2655 17.6665 14.2655 18.7344C14.2655 19.8023 15.1312 20.668 16.1991 20.668Z" fill="#2B2B2B"/>
<path d="M0.644527 2.62113H3.33234L6.44403 13.5142L6.19997 14.0023C5.55733 15.2862 6.49022 16.8007 7.92962 16.8007H18.7772C19.1335 16.8007 19.4218 16.5125 19.4218 16.1562C19.4218 15.8 19.1335 15.5117 18.7772 15.5117H7.92962C7.451 15.5117 7.13819 15.0077 7.35307 14.5789L7.53122 14.2226H18.7772C19.0649 14.2226 19.3179 14.0319 19.3972 13.755L21.9753 4.73157C22.0307 4.53709 21.9917 4.3281 21.8702 4.16636C21.7481 4.00523 21.5574 3.91018 21.3554 3.91018H5.04119L4.43822 1.7997C4.3589 1.52277 4.1059 1.33203 3.81822 1.33203H0.644527C0.288276 1.33203 0 1.62031 0 1.97656C0 2.33281 0.288276 2.62113 0.644527 2.62113Z" fill="#2B2B2B"/>
</g>
<defs>
<clipPath id="clip0_19_839">
<rect width="22" height="22" fill="white"/>
</clipPath>
</defs>
</svg>
