<svg width="22" height="22" viewBox="0 0 22 22" fill="none" xmlns="http://www.w3.org/2000/svg">
<g clip-path="url(#clip0_19_833)">
<path d="M19.485 13.6401L18.5453 12.2493C18.3007 11.887 18.1708 11.4596 18.1724 11.0225V7.17062C18.1725 6.20003 17.9756 5.23952 17.5939 4.34717C17.2121 3.45481 16.6534 2.64914 15.9514 1.97888C15.2494 1.30861 14.4188 0.787678 13.5098 0.447566C12.6007 0.107455 11.6321 -0.044766 10.6626 0.000107789C8.79617 0.107564 7.04333 0.931606 5.76983 2.30029C4.49634 3.66897 3.80055 5.47655 3.82768 7.34587V11.0225C3.82932 11.4596 3.69939 11.887 3.45479 12.2493L2.51513 13.6401C2.26206 14.0146 2.11567 14.451 2.09165 14.9023C2.06764 15.3537 2.16689 15.8031 2.37878 16.2024C2.59068 16.6016 2.90722 16.9357 3.29449 17.1688C3.68176 17.4019 4.12516 17.5252 4.57717 17.5255H17.4229C17.8749 17.5252 18.3183 17.4019 18.7056 17.1688C19.0929 16.9357 19.4094 16.6016 19.6213 16.2024C19.8332 15.8031 19.9325 15.3537 19.9084 14.9023C19.8844 14.451 19.738 14.0146 19.485 13.6401Z" fill="#2B2B2B"/>
<path d="M11.0094 22.0001C11.948 21.997 12.8637 21.7105 13.6369 21.1783C14.41 20.646 15.0043 19.8928 15.3422 19.0171H6.65784C6.99644 19.896 7.59358 20.6516 8.37047 21.1842C9.14735 21.7168 10.0675 22.0013 11.0094 22.0001Z" fill="#2B2B2B"/>
</g>
<defs>
<clipPath id="clip0_19_833">
<rect width="22" height="22" fill="white"/>
</clipPath>
</defs>
</svg>
